<?xml version="1.0" encoding="UTF-8"?>
<svg version="1.1" xmlns="http://www.w3.org/2000/svg" width="1080" height="1080">
<path d="M0 0 C356.4 0 712.8 0 1080 0 C1080 356.4 1080 712.8 1080 1080 C723.6 1080 367.2 1080 0 1080 C0 723.6 0 367.2 0 0 Z " fill="#FE6424" transform="translate(0,0)"/>
<path d="M0 0 C0 84.81 0 169.62 0 257 C-11.40380789 259.40080166 -22.71687778 261.73046134 -34.1875 263.6875 C-50.70175788 266.5420311 -67.17001644 269.63040735 -83.63549805 272.75268555 C-93.64961693 274.64819857 -103.67001173 276.50275543 -113.70703125 278.2734375 C-115.16721931 278.53430649 -115.16721931 278.53430649 -116.65690613 278.80044556 C-117.56136978 278.95830536 -118.46583344 279.11616516 -119.39770508 279.27880859 C-120.58907829 279.48840714 -120.58907829 279.48840714 -121.80451965 279.70223999 C-124 280 -124 280 -128 280 C-128 280.66 -128 281.32 -128 282 C-127.25588867 282.10739502 -126.51177734 282.21479004 -125.74511719 282.32543945 C-116.52797244 283.69534639 -107.39165069 285.39511817 -98.25 287.1875 C-97.47298737 287.33895477 -96.69597473 287.49040955 -95.89541626 287.64645386 C-83.95503502 289.97554803 -72.04840075 292.44247 -60.15496826 294.9994812 C-47.49688231 297.71905583 -34.80370244 300.21658061 -22.0859375 302.640625 C-16.96421608 303.62043258 -11.84344593 304.60461187 -6.7265625 305.609375 C-5.48729004 305.85139648 -4.24801758 306.09341797 -2.97119141 306.34277344 C0 307 0 307 2 308 C2.3989563 310.11787415 2.3989563 310.11787415 2.59814453 312.8762207 C2.67164124 313.87811432 2.74513794 314.88000793 2.82086182 315.91226196 C3.09287344 320.60082479 3.28893664 325.2861957 3.4296875 329.98046875 C3.46446198 331.05715317 3.49923645 332.13383759 3.5350647 333.2431488 C3.65173306 336.89116802 3.76340524 340.53932229 3.875 344.1875 C3.93723891 346.16112038 3.99948283 348.13474061 4.06198502 350.10835266 C4.65512395 368.87189581 5.1934896 387.63701374 5.7265625 406.40234375 C5.7902465 408.64218651 5.85393161 410.88202925 5.9176178 413.12187195 C5.9819493 415.38536565 6.04627524 417.6488595 6.1105957 419.91235352 C6.14264634 421.04018722 6.17469698 422.16802092 6.20771885 423.33003139 C6.37025654 429.05146159 6.53248562 434.77290025 6.69418335 440.49435425 C7.46353813 467.68285036 8.24285303 494.86783479 9.44140625 522.04150391 C9.94638884 533.70216648 10.09145165 545.32858075 10 557 C5.95947556 557.02608602 1.91900401 557.04345531 -2.12158203 557.05493164 C-4.11622858 557.06202433 -6.11085284 557.07475486 -8.10546875 557.08789062 C-17.47234943 557.12343896 -26.82535508 556.90579045 -36.18730164 556.62104797 C-53.28443015 556.10243281 -70.38133351 555.7879272 -87.484375 555.53515625 C-88.76428503 555.5161495 -90.04419506 555.49714275 -91.36289024 555.47756004 C-97.37027962 555.38864001 -103.37768257 555.30070376 -109.3850984 555.21359402 C-124.14880355 554.99943581 -138.91235832 554.77577694 -153.67578125 554.54296875 C-154.37231473 554.53199 -155.06884821 554.52101126 -155.78648877 554.50969982 C-181.84017454 554.09779708 -207.8894559 553.55759497 -233.9375 552.875 C-235.21296944 552.84159452 -235.21296944 552.84159452 -236.51420593 552.80751419 C-246.34311239 552.54918309 -256.17172282 552.28131247 -266 552 C-268.8653968 538.90626126 -271.34764213 525.77287174 -273.63446045 512.56652832 C-274.59838039 507.00385604 -275.57451778 501.44332971 -276.55078125 495.8828125 C-276.75098877 494.74187134 -276.95119629 493.60093018 -277.1574707 492.42541504 C-279.33901739 480.02304738 -281.59839097 467.6352202 -283.875 455.25 C-284.15529556 453.72110138 -284.15529556 453.72110138 -284.44125366 452.16131592 C-286.53362093 440.7544014 -288.67561962 429.36215737 -291 418 C-291.12528076 419.05348633 -291.25056152 420.10697266 -291.37963867 421.19238281 C-293.66452112 440.36101015 -296.01192494 459.51267449 -298.74072266 478.62359619 C-301.05732563 494.89477627 -303.01574383 511.20819044 -304.94506836 527.52929688 C-305.18603418 529.54296887 -305.42700094 531.55664075 -305.66796875 533.5703125 C-305.82552643 534.92910019 -305.82552643 534.92910019 -305.98626709 536.31533813 C-306.70319061 542.27968374 -307.7398485 548.12670866 -309 554 C-323.27078372 554.06596699 -337.54158189 554.10343776 -351.8125 554.125 C-352.93698673 554.12671204 -354.06147346 554.12842407 -355.22003555 554.13018799 C-406.21378647 554.19815617 -457.19830433 553.62491384 -508.1875 553 C-509.16361252 552.98805257 -510.13972505 552.97610514 -511.14541674 552.96379566 C-536.43042752 552.65408095 -561.71528524 552.33299582 -587 552 C-587.02374519 535.56256638 -586.97293528 519.12807348 -586.81640625 502.69140625 C-586.79667766 500.53362593 -586.77702134 498.37584494 -586.75743103 496.21806335 C-586.70515599 490.50962456 -586.65110062 484.80120419 -586.59634399 479.0927887 C-586.56220404 475.53162858 -586.52839463 471.97046544 -586.49462891 468.40930176 C-585.34191011 347.23780743 -585.34191011 347.23780743 -584 305 C-578.09459908 302.69245605 -572.16829791 300.82366501 -566.0625 299.125 C-564.18474501 298.59558674 -562.30714251 298.06563234 -560.4296875 297.53515625 C-559.50639648 297.27492676 -558.58310547 297.01469727 -557.63183594 296.74658203 C-553.97641707 295.70963668 -550.33101031 294.64042201 -546.6875 293.5625 C-545.31122577 293.15615565 -543.93492277 292.74990874 -542.55859375 292.34375 C-541.47747314 292.02470703 -541.47747314 292.02470703 -540.37451172 291.69921875 C-527.08843849 287.78688956 -513.78706144 283.9290743 -500.46655273 280.13574219 C-494.90836863 278.55088915 -489.35717732 276.94397892 -483.8125 275.3125 C-483.11753418 275.10842529 -482.42256836 274.90435059 -481.70654297 274.6940918 C-477.11464484 273.34127112 -472.53928483 271.94090364 -467.98046875 270.48046875 C-466 270 -466 270 -462 270 C-462 269.34 -462 268.68 -462 268 C-462.86202026 267.93087402 -462.86202026 267.93087402 -463.74145508 267.86035156 C-470.81036314 267.23038649 -477.71729102 266.06749037 -484.6875 264.75 C-485.87085938 264.52892578 -487.05421875 264.30785156 -488.2734375 264.08007812 C-496.64929817 262.49557715 -504.97494899 260.73411958 -513.29370117 258.87597656 C-521.79828469 256.99568406 -530.350107 255.43116418 -538.92016602 253.8815918 C-547.42551805 252.32921678 -555.86562343 250.55618007 -564.30322266 248.67285156 C-570.21152552 247.36130337 -576.09367697 246.22281312 -582.0859375 245.359375 C-584 245 -584 245 -585 244 C-585.0858367 242.51582529 -585.10136567 241.02752762 -585.08901978 239.54092407 C-585.08342796 238.57424994 -585.07783615 237.6075758 -585.07207489 236.61160851 C-585.0606974 235.53917711 -585.04931992 234.46674572 -585.03759766 233.36181641 C-585.02957375 232.23517893 -585.02154984 231.10854145 -585.01328278 229.94776344 C-584.98506582 226.16564133 -584.94957634 222.38362262 -584.9140625 218.6015625 C-584.8925713 215.93552882 -584.8714604 213.26949458 -584.85079956 210.60345459 C-584.79999178 204.17172585 -584.74363039 197.74005736 -584.68518245 191.30839396 C-584.63814672 186.12270457 -584.59315534 180.93700115 -584.54956055 175.75128174 C-584.37912494 155.50072995 -584.1953278 135.25032679 -584 115 C-583.98837326 113.79358856 -583.97674652 112.58717712 -583.96476746 111.34420776 C-583.83102518 97.52852811 -583.68765003 83.71298895 -583.52873993 69.89757538 C-583.50046755 67.41603838 -583.47317809 64.93449225 -583.44610596 62.45294189 C-583.40334071 58.56506178 -583.35691 54.67724063 -583.30774307 50.78943634 C-583.28333763 48.81714592 -583.2616439 46.84482244 -583.24020386 44.87249756 C-583.04385299 30.24335434 -582.49465224 15.62148495 -582 1 C-558.16667296 0.96887726 -534.33334448 0.94885595 -510.5 0.9375 C-509.61472138 0.9370657 -508.72944276 0.93663139 -507.81733751 0.93618393 C-458.27161443 0.91253665 -408.73104683 1.00793363 -359.1875 1.5 C-357.98261932 1.51195782 -356.77773865 1.52391563 -355.53634644 1.53623581 C-341.35741621 1.67806751 -327.17863879 1.83155085 -313 2 C-309.76204281 17.75279489 -309.76204281 17.75279489 -308.90234375 24.859375 C-308.74056641 26.16003906 -308.57878906 27.46070313 -308.41210938 28.80078125 C-308.25548828 30.10402344 -308.09886719 31.40726562 -307.9375 32.75 C-306.97755756 40.66735004 -305.9636726 48.53190082 -304.47094727 56.36816406 C-303.46160517 62.0087591 -302.84278083 67.70878469 -302.14453125 73.39453125 C-301.55950611 78.04327942 -300.90790459 82.64984873 -300.03515625 87.25390625 C-298.71671361 94.27514643 -297.84522684 101.35378904 -296.9375 108.4375 C-296.59518453 111.10323801 -296.24961883 113.76849036 -295.90234375 116.43359375 C-295.75273193 117.59947021 -295.60312012 118.76534668 -295.44897461 119.96655273 C-295.07098798 122.87478095 -295.07098798 122.87478095 -294.44750977 125.17602539 C-293.73059858 128.09803493 -293.94247418 131.00865756 -294 134 C-293.34 134 -292.68 134 -292 134 C-291.9589917 133.45287354 -291.9179834 132.90574707 -291.87573242 132.34204102 C-291.19246238 124.4471006 -289.76693149 116.72047774 -288.3125 108.9375 C-288.04319022 107.47924593 -287.77431905 106.02091081 -287.50585938 104.5625 C-286.94911745 101.53988671 -286.39051149 98.51762694 -285.83056641 95.49560547 C-284.66151624 89.17824802 -283.51550697 82.85672258 -282.36914062 76.53521729 C-281.75082368 73.12619307 -281.13134616 69.71737998 -280.51171875 66.30859375 C-280.32698502 65.29212769 -280.32698502 65.29212769 -280.13851929 64.25512695 C-279.36097945 59.97894232 -278.58048187 55.70330672 -277.79808044 51.42800903 C-277.26553536 48.51770766 -276.73372147 45.60727313 -276.20223999 42.69677734 C-275.94428052 41.28415079 -275.68616514 39.87155269 -275.42788696 38.45898438 C-273.80777377 29.59016994 -272.22469095 20.71743784 -270.84887695 11.80688477 C-270.10422473 7.10422473 -270.10422473 7.10422473 -269 6 C-261.95379184 4.98989071 -254.81495948 4.83069718 -247.70776367 4.73461914 C-246.25227316 4.70989454 -246.25227316 4.70989454 -244.76737881 4.68467045 C-241.56762404 4.63113715 -238.36780984 4.58322576 -235.16796875 4.53515625 C-232.88552135 4.49765976 -230.60308125 4.45971615 -228.32064819 4.4213562 C-223.46697917 4.34029153 -218.61328295 4.26131868 -213.759552 4.18405151 C-201.00877909 3.98046466 -188.25827464 3.76116819 -175.5078125 3.5390625 C-174.23564188 3.51697409 -172.96347126 3.49488567 -171.65275002 3.47212791 C-148.95257973 3.07564937 -126.25762669 2.55521491 -103.5625 1.9375 C-97.43231452 1.77128297 -91.30211465 1.60561426 -85.171875 1.44140625 C-84.44745838 1.42196394 -83.72304176 1.40252163 -82.97667313 1.38249016 C-67.09015671 0.95820707 -51.2023083 0.64701868 -35.3125 0.375 C-34.12423615 0.3544455 -32.93597229 0.33389099 -31.71170044 0.31271362 C-28.40808544 0.25629117 -25.10444786 0.2017458 -21.80078125 0.1484375 C-20.38789825 0.1251664 -20.38789825 0.1251664 -18.94647217 0.10142517 C-12.62868686 0.00474039 -6.32030414 0 0 0 Z " fill="#FEFEFE" transform="translate(828,261)"/>
</svg>
